<?xml version="1.0" standalone="no"?>
<!DOCTYPE svg PUBLIC "-//W3C//DTD SVG 20010904//EN"
 "http://www.w3.org/TR/2001/REC-SVG-20010904/DTD/svg10.dtd">
<svg version="1.0" xmlns="http://www.w3.org/2000/svg"
 width="107.000000pt" height="107.000000pt" viewBox="0 0 107.000000 107.000000"
 preserveAspectRatio="xMidYMid meet">
<metadata>
Created by potrace 1.11, written by Peter Selinger 2001-2013
</metadata>
<g transform="translate(0.000000,107.000000) scale(0.100000,-0.100000)"
fill="#000000" stroke="none">
<path d="M630 1001 c-82 -27 -167 -109 -194 -188 -23 -69 -22 -233 4 -314 22
-72 87 -188 133 -236 17 -18 27 -36 23 -40 -4 -4 -46 -7 -94 -7 -71 0 -95 5
-132 24 -71 36 -118 80 -164 150 -59 88 -81 158 -80 250 0 97 26 157 85 199
62 46 111 56 170 37 59 -20 69 -20 69 -2 0 36 -94 64 -174 52 -56 -9 -137 -66
-167 -119 -111 -199 -26 -511 176 -645 88 -58 118 -67 220 -66 68 0 104 6 145
22 l55 22 52 -35 c29 -19 60 -35 68 -35 27 0 16 26 -25 59 -22 17 -40 36 -40
41 0 5 14 17 31 27 71 41 194 246 219 364 18 79 9 233 -15 284 -25 51 -89 115
-140 140 -44 20 -181 31 -225 16z m151 -52 c119 -36 191 -189 160 -340 -18
-85 -90 -197 -179 -279 -42 -39 -83 -69 -92 -68 -26 5 -108 136 -135 217 -69
202 -28 384 104 453 58 31 84 34 142 17z"/>
</g>
</svg>
